<svg width="129" height="60" viewBox="0 0 129 60" fill="none" xmlns="http://www.w3.org/2000/svg">
<path d="M69.4707 19.8668H73.1644V41.6556H69.4707V19.8668ZM76.8581 19.8668H84.3909C86.0302 19.8668 87.3998 20.0536 88.4581 20.4064C89.5164 20.7591 90.3672 21.2572 90.969 21.8797C91.5661 22.4681 92.0082 23.1953 92.2556 23.9963C92.5057 24.8097 92.6316 25.6562 92.6291 26.5072C92.6331 27.4128 92.5073 28.3142 92.2556 29.1841C92.0102 30.0225 91.5693 30.7906 90.969 31.4253C90.2617 32.1193 89.4018 32.6381 88.4581 32.9401C87.3998 33.3136 86.0717 33.5004 84.4531 33.5004H80.4896V41.6556H76.8581V19.8668ZM84.3701 30.45C85.1469 30.4729 85.923 30.3821 86.6735 30.1802C87.1987 30.0413 87.6827 29.7779 88.0846 29.4124C88.4262 29.0804 88.6764 28.6658 88.8109 28.2088C88.9478 27.6943 89.0175 27.1642 89.0184 26.6317C89.0306 26.0917 88.9606 25.5529 88.8109 25.0339C88.6729 24.5913 88.4142 24.1961 88.0638 23.8926C87.6461 23.552 87.1565 23.3108 86.632 23.187C85.8923 23.0045 85.1317 22.9208 84.3701 22.938H80.5311V30.45H84.3701V30.45ZM109.251 19.8668V23.0418H99.0412V29.2049H108.649V32.4006H99.0412V41.6556H95.3475V19.8668H109.251ZM114.688 34.9945C114.854 36.4263 115.372 37.4639 116.223 38.1072C117.074 38.7505 118.381 39.0825 120.083 39.0825C120.791 39.1029 121.499 39.0118 122.179 38.8127C122.676 38.6565 123.14 38.4103 123.548 38.0864C123.882 37.7974 124.133 37.425 124.275 37.0074C124.419 36.5797 124.489 36.1306 124.482 35.6793C124.486 35.3349 124.437 34.9919 124.337 34.6625C124.223 34.3177 124.039 34 123.797 33.7287C123.495 33.4149 123.136 33.1614 122.739 32.9816C122.194 32.7467 121.623 32.5795 121.038 32.4836L118.257 31.9648C117.262 31.7886 116.284 31.5318 115.331 31.197C114.546 30.9279 113.815 30.5203 113.173 29.9934C112.594 29.5014 112.145 28.8742 111.866 28.1673C111.554 27.3245 111.406 26.4301 111.43 25.5319C111.397 24.6222 111.594 23.719 112.004 22.9062C112.414 22.0935 113.023 21.3977 113.775 20.8836C114.564 20.333 115.452 19.9386 116.389 19.7216C117.463 19.4651 118.564 19.3397 119.668 19.348C121.162 19.348 122.428 19.5141 123.445 19.8668C124.349 20.1485 125.188 20.6069 125.914 21.2157C126.52 21.753 127.007 22.4101 127.346 23.1455C127.67 23.8726 127.894 24.6406 128.01 25.4282L124.524 25.9677C124.233 24.7434 123.756 23.8511 123.05 23.2493C122.345 22.6475 121.245 22.357 119.709 22.357C118.977 22.3451 118.245 22.4218 117.531 22.5852C117.023 22.7065 116.544 22.925 116.12 23.2285C115.786 23.4754 115.521 23.8042 115.352 24.1831C115.203 24.5379 115.125 24.9187 115.123 25.3037C115.123 26.2582 115.372 26.9638 115.891 27.441C116.41 27.9183 117.323 28.2711 118.63 28.5408L121.639 29.1219C123.943 29.5577 125.624 30.284 126.703 31.3008C127.782 32.3176 128.321 33.8117 128.321 35.7415C128.329 36.6172 128.159 37.4853 127.823 38.2939C127.486 39.0878 126.959 39.7863 126.288 40.3276C125.526 40.946 124.653 41.4111 123.714 41.6971C122.551 42.0499 121.34 42.2179 120.125 42.1952C117.344 42.1952 115.144 41.6141 113.567 40.4313C111.99 39.2485 111.098 37.4431 110.952 34.9945H114.688V34.9945Z" fill="white"/>
<path d="M0.468262 44.8832L26.14 59.7056L51.8118 44.8832V15.2384L26.14 0.416016L0.468262 15.2384V44.8832V44.8832Z" fill="#469EA2"/>
<path d="M23.5116 3.96094L4.86903 14.7186C4.89958 15.0541 4.89958 15.3917 4.86903 15.7272L23.4811 26.4849C24.2463 25.9191 25.1729 25.6137 26.1247 25.6137C27.0764 25.6137 28.003 25.9191 28.7682 26.4849L47.3803 15.7272C47.3497 15.3917 47.3497 15.0541 47.3803 14.7186L28.7988 3.96094C28.0335 4.52673 27.1069 4.83208 26.1552 4.83208C25.2035 4.83208 24.2769 4.52673 23.5116 3.96094V3.96094ZM49.1834 18.6917L30.5408 29.5716C30.6418 30.5152 30.4421 31.4666 29.9701 32.2899C29.498 33.1132 28.7779 33.7663 27.9125 34.1558L27.9431 55.549C28.2445 55.6819 28.5312 55.8458 28.7988 56.038L47.4108 45.2803C47.3098 44.3367 47.5096 43.3853 47.9816 42.562C48.4536 41.7387 49.1738 41.0856 50.0391 40.696V19.1806C49.7412 19.0409 49.455 18.8774 49.1834 18.6917V18.6917ZM3.09645 18.8139C2.8289 19.0061 2.54212 19.1699 2.24072 19.3029V40.8183C3.11668 41.194 3.84674 41.8444 4.32082 42.6713C4.79491 43.4982 4.98731 44.4567 4.86903 45.4025L23.4811 56.1602C23.7486 55.9681 24.0354 55.8042 24.3368 55.6712V34.1558C23.4608 33.7801 22.7308 33.1298 22.2567 32.3029C21.7826 31.476 21.5902 30.5174 21.7085 29.5716L3.09645 18.8139V18.8139Z" fill="#6ACAD1"/>
<path d="M26.14 3.62637L49.0918 16.8901V43.3871L26.14 56.6508L3.18825 43.3871V16.8596L26.14 3.62637ZM26.14 0.478516L0.468262 15.3009V44.9457L26.14 59.7681L51.8118 44.9457V15.3009L26.14 0.478516V0.478516Z" fill="#469EA2"/>
<path d="M26.3234 35.1049H25.9567C25.3261 35.1065 24.7015 34.9835 24.1186 34.7429C23.5357 34.5024 23.0061 34.149 22.5603 33.7031C22.1144 33.2572 21.761 32.7276 21.5205 32.1448C21.2799 31.5619 21.1569 30.9372 21.1585 30.3067V29.9399C21.1569 29.3094 21.2799 28.6847 21.5205 28.1019C21.761 27.519 22.1144 26.9894 22.5603 26.5435C23.0061 26.0976 23.5357 25.7443 24.1186 25.5037C24.7015 25.2632 25.3261 25.1402 25.9567 25.1418H26.3234C26.954 25.1402 27.5786 25.2632 28.1615 25.5037C28.7444 25.7443 29.274 26.0976 29.7198 26.5435C30.1657 26.9894 30.5191 27.519 30.7596 28.1019C31.0002 28.6847 31.1232 29.3094 31.1216 29.9399V30.3067C31.1232 30.9372 31.0002 31.5619 30.7596 32.1448C30.5191 32.7276 30.1657 33.2572 29.7198 33.7031C29.274 34.149 28.7444 34.5024 28.1615 34.7429C27.5786 34.9835 26.954 35.1065 26.3234 35.1049V35.1049ZM26.3234 54.8171H25.9567C25.1042 54.8146 24.2666 55.0399 23.5304 55.4697C22.7943 55.8996 22.1864 56.5184 21.7697 57.2621L26.14 59.7681L30.5104 57.2621C30.0937 56.5184 29.4858 55.8996 28.7497 55.4697C28.0135 55.0399 27.1759 54.8146 26.3234 54.8171V54.8171ZM51.8424 39.9947H51.659C51.0285 39.9931 50.4038 40.1161 49.8209 40.3567C49.2381 40.5972 48.7085 40.9506 48.2626 41.3965C47.8167 41.8424 47.4634 42.372 47.2228 42.9548C46.9822 43.5377 46.8592 44.1623 46.8608 44.7929V45.1596C46.8565 45.9742 47.0673 46.7755 47.4721 47.4823L51.8424 44.9457V39.9947V39.9947ZM47.4721 12.7949C47.0709 13.5032 46.8603 14.3035 46.8608 15.1175V15.4843C46.8592 16.1148 46.9822 16.7395 47.2228 17.3224C47.4634 17.9052 47.8167 18.4348 48.2626 18.8807C48.7085 19.3266 49.2381 19.68 49.8209 19.9205C50.4038 20.1611 51.0285 20.2841 51.659 20.2825H51.8424V15.3009L47.4721 12.7949ZM26.14 0.478516L21.7697 2.98457C22.1844 3.73224 22.7911 4.35578 23.527 4.79092C24.263 5.22605 25.1017 5.45704 25.9567 5.46006H26.3234C27.1759 5.46263 28.0135 5.23732 28.7497 4.80746C29.4858 4.3776 30.0937 3.75881 30.5104 3.01513L26.14 0.478516V0.478516ZM4.83858 12.7643L0.468262 15.3009V20.2825H0.651632C1.28219 20.2841 1.90685 20.1611 2.48972 19.9205C3.07259 19.68 3.60218 19.3266 4.04805 18.8807C4.49393 18.4348 4.8473 17.9052 5.08786 17.3224C5.32842 16.7395 5.45142 16.1148 5.44981 15.4843V15.1175C5.43946 14.2952 5.22971 13.4877 4.83858 12.7643V12.7643ZM0.651632 39.9947H0.468262V44.9457L4.83858 47.4823C5.23977 46.774 5.45037 45.9737 5.44981 45.1596V44.7929C5.45142 44.1623 5.32842 43.5377 5.08786 42.9548C4.8473 42.372 4.49393 41.8424 4.04805 41.3965C3.60218 40.9506 3.07259 40.5972 2.48972 40.3567C1.90685 40.1161 1.28219 39.9931 0.651632 39.9947V39.9947Z" fill="#469EA2"/>
<path d="M26.14 59.9196V30.2443L0.468262 15.4219V45.0972L26.14 59.9196Z" fill="#083B54" fill-opacity="0.15"/>
<path d="M51.8422 44.8225V15.1777L26.1704 30.0001V59.6755L51.8422 44.8225Z" fill="#083B54" fill-opacity="0.05"/>
</svg>
