<svg width="81" height="71" viewBox="0 0 81 71" fill="none" xmlns="http://www.w3.org/2000/svg">
<rect x="1.42656" y="0.735889" width="78.1" height="69.1" rx="7.3" fill="white" stroke="#F99E48" stroke-width="1.4" stroke-dasharray="4 4"/>
<path d="M60.3125 37.5625C50.6314 43.8036 36.875 37.5625 37.125 28.3125C39.0185 19.7554 49.1879 21.9077 51.5 23.0625C53.8121 24.2173 52.8597 18.1981 47.4981 16.3571C40.2354 13.8632 31.3454 14.392 28.5353 26.919C26.615 35.48 30.3763 47.4821 44.8186 47.6421C59.2609 47.8022 60.3125 37.5625 60.3125 37.5625Z" fill="#0E161B"/>
<path d="M61.0991 38.3911C50.9708 44.9205 34.2286 37.8045 36.4881 27.5931C38.4691 18.6407 49.1037 21.2136 51.5226 22.4218C53.9415 23.6299 52.4776 17.2129 46.8683 15.2869C39.27 12.6778 29.9694 13.231 27.0295 26.3367C25.0204 35.2931 28.9555 47.8498 44.065 48.0172C59.1744 48.1846 61.0991 38.3911 61.0991 38.3911V38.3911Z" fill="#FFC897"/>
<path d="M66.0476 40.8932C66.0476 37.0962 60.6463 36.3352 58.875 38.0625C54.6187 42.2122 50.1943 43.3863 41.8125 41.75C28.875 38.8125 28.7625 25.6114 36.6875 20.5625C42.0768 17.9268 48.319 21.132 50.75 23C52.8654 24.6249 56.9143 25.173 56.7024 22.4606C56.2504 16.686 45.113 3.85593 29.9487 11.6748C14.7858 19.4936 14.8867 37.1401 14.8867 40.3387V50.6454C14.8867 53.7857 17.4655 56.2565 20.6059 56.2565H60.411C63.5513 56.2565 66.0647 53.7857 66.0647 50.6454C66.0647 50.6454 65.8415 39.8677 66.0476 40.8932Z" fill="#0E161B"/>
<path d="M64.5686 40.4203C64.5686 37.546 60.8799 37.2942 59.2111 38.9215C55.201 42.8312 49.297 44.2951 41.4001 42.7535C27.6715 40.0747 27.5496 23.9835 36.936 19.3935C42.0135 16.9103 48.038 19.8502 50.3284 21.6101C52.3213 23.141 56.1332 25.1729 55.9336 22.6173C55.5077 17.1768 44.845 5.52559 30.5579 12.8921C16.2721 20.2587 16.3672 36.8843 16.3672 39.8979V49.6084C16.3672 52.5671 18.7968 54.8949 21.7555 54.8949H59.258C62.2166 54.8949 64.5847 52.5671 64.5847 49.6084C64.5847 49.6084 64.5793 40.4283 64.5686 40.4203V40.4203Z" fill="white"/>
<path d="M64.5686 40.4203C64.5686 37.546 60.8799 37.2942 59.2111 38.9215C55.201 42.8312 49.297 44.2951 41.4001 42.7535C27.6715 40.0747 27.5496 23.9835 36.936 19.3935C42.0135 16.9103 48.038 19.8502 50.3284 21.6101C52.3213 23.141 56.1332 25.1729 55.9336 22.6173C55.5077 17.1768 44.845 5.52559 30.5579 12.8921C16.2721 20.2587 16.3672 36.8843 16.3672 39.8979V49.6084C16.3672 52.5671 18.7968 54.8949 21.7555 54.8949H59.258C62.2166 54.8949 64.5847 52.5671 64.5847 49.6084C64.5847 49.6084 64.5793 40.4283 64.5686 40.4203V40.4203Z" fill="#F99E48"/>
</svg>
