<svg width="81" height="72" viewBox="0 0 81 72" fill="none" xmlns="http://www.w3.org/2000/svg">
<rect x="1.42656" y="1.61772" width="78.1" height="69.1" rx="7.3" fill="white" stroke="#F99E48" stroke-width="1.4" stroke-dasharray="4 4"/>
<path d="M16.8047 29.0168H64.149V23.0102C64.149 20.8026 62.3594 19.0131 60.1519 19.0131H20.8018C18.5943 19.0131 16.8047 20.8026 16.8047 23.0102V29.0168Z" fill="#FFC897" stroke="#0E161B"/>
<path d="M52.2314 20.0949C52.2314 26.3807 47.1358 31.4763 40.8501 31.4763C34.5643 31.4763 29.4688 26.3807 29.4688 20.0949C29.4688 13.8092 34.5643 8.71362 40.8501 8.71362C47.1358 8.71362 52.2314 13.8092 52.2314 20.0949Z" fill="#FF7F32" stroke="black"/>
<path d="M39.1872 11.884C39.4738 11.884 39.7062 12.1164 39.7062 12.4031V14.6516C40.1537 14.5413 40.6183 14.4842 41.0905 14.4842C41.3973 14.4842 41.6892 14.5031 41.9664 14.5389V12.4031C41.9664 12.1164 42.1988 11.884 42.4855 11.884C42.7722 11.884 43.0046 12.1164 43.0046 12.4031V14.7695C44.8203 15.3598 46.0737 17.0174 46.1516 18.1438C46.2295 19.2702 44.1271 18.7823 44.1271 18.7823C43.8624 17.7233 43.0059 16.5554 41.0905 16.5554C39.4398 16.5554 37.6956 17.7389 37.6956 20.2461C37.6956 22.5976 39.3463 23.8901 41.1216 23.8901C43.0059 23.8901 43.4588 22.2394 44.2206 21.6321C44.9824 21.0247 46.2295 22.2394 46.2295 22.2394C45.9046 23.551 44.8823 25.0765 43.0046 25.7022V27.7865C43.0046 28.0732 42.7722 28.3056 42.4855 28.3056C42.1988 28.3056 41.9664 28.0732 41.9664 27.7865V25.9385C41.6983 25.9738 41.4168 25.9924 41.1216 25.9924C40.6343 25.9924 40.1598 25.9368 39.7062 25.8292V27.7865C39.7062 28.0732 39.4738 28.3056 39.1872 28.3056C38.9005 28.3056 38.6681 28.0732 38.6681 27.7865V25.4759C36.787 24.6246 35.4688 22.7669 35.4688 20.2461C35.4688 17.7386 36.8206 15.8792 38.6681 15.0174V12.4031C38.6681 12.1164 38.9005 11.884 39.1872 11.884Z" fill="white"/>
<path d="M16.8047 29.0168H64.149V52.1269C64.149 54.3344 62.3594 56.124 60.1519 56.124H20.8018C18.5943 56.124 16.8047 54.3344 16.8047 52.1269V29.0168Z" fill="#F99E48" stroke="#0E161B"/>
<path d="M49.002 39.4786C49.002 37.6158 50.512 36.1057 52.3748 36.1057H64.1121V49.035H52.3748C50.512 49.035 49.002 47.5249 49.002 45.6621V39.4786Z" fill="#FFC897" stroke="black"/>
<circle cx="57.2768" cy="42.5704" r="2.47018" fill="white" stroke="black"/>
</svg>
