<svg width="30" height="24" viewBox="0 0 30 24" fill="none" xmlns="http://www.w3.org/2000/svg">
<path fill-rule="evenodd" clip-rule="evenodd" d="M16.1357 10.3082C17.491 10.3082 19.0598 10.4992 20.8442 10.8832C22.4305 11.2352 23.7683 11.4102 24.8585 11.4102L24.8585 11.2662C22.084 10.1482 19.985 8.95916 18.5647 7.69616C17.1445 6.43516 15.7892 4.87716 14.5009 3.02416L17.721 0.38916C19.2413 3.10416 20.8607 5.24516 22.578 6.80916C24.2953 8.37516 26.5428 9.74916 29.3184 10.9312L29.3184 12.8472C26.5439 14.0302 24.2953 15.4032 22.578 16.9682C20.8617 18.5342 19.2424 20.6742 17.721 23.3892L14.4999 20.7542C15.7892 18.9012 17.1445 17.3442 18.5637 16.0822C19.985 14.8202 22.0829 13.6302 24.8585 12.5122L24.8585 12.3682C23.8683 12.3682 22.5471 12.5282 20.8937 12.8482C20.0976 13.0165 19.2961 13.16 18.4905 13.2782C17.7101 13.3806 16.9232 13.4287 16.1357 13.4222L0.439453 13.2207L0.439452 10.3082L16.1357 10.3082Z" fill="white"/>
</svg>
