<svg width="150" height="46" viewBox="0 0 150 46" fill="none" xmlns="http://www.w3.org/2000/svg">
<path d="M114.072 39.9621L118.057 38.6934V5.23633L114.072 6.50507V39.9621ZM68.1051 19.6623C70.6073 19.6623 72.9242 20.7901 74.407 22.6697L76.0288 18.8635C73.8973 16.7959 71.0707 15.8091 68.1051 15.8091C61.2471 15.8091 56.5207 21.307 56.567 27.3687C56.6133 33.9474 61.7105 39.3043 68.1051 39.3043C71.3487 39.3043 73.8046 38.3175 75.6581 36.9548V32.3027C73.7119 34.2763 70.8853 35.4511 68.4294 35.4511C64.7224 35.4511 60.552 32.3967 60.552 27.3687C60.552 22.7167 64.1664 19.6623 68.1051 19.6623ZM94.6102 15.8091C87.7522 15.8091 83.7672 21.307 83.7672 27.3687C83.7672 33.9474 88.9107 39.3043 95.3053 39.3043C98.5489 39.3043 101.005 38.3175 102.858 36.9548V32.3027C100.912 34.2763 98.0855 35.4511 95.6296 35.4511C92.3397 35.4511 88.7253 33.3835 87.9839 29.0134H105.453V27.4627C105.453 20.9781 101.237 15.8091 94.6102 15.8091ZM137.658 15.8091C131.263 15.8091 126.074 21.072 126.074 27.5567C126.074 34.0414 131.263 39.3043 137.658 39.3043C144.053 39.3043 149.242 34.0414 149.242 27.5567C149.242 21.072 144.053 15.8091 137.658 15.8091ZM94.6566 19.6623C97.7612 19.6623 101.051 21.6359 101.329 25.4421H87.9839C88.262 21.6359 91.5519 19.6623 94.6566 19.6623ZM137.658 35.4511C136.118 35.4511 134.613 34.9881 133.333 34.1206C132.053 33.2532 131.055 32.0203 130.466 30.5778C129.877 29.1352 129.722 27.548 130.023 26.0166C130.323 24.4852 131.065 23.0786 132.153 21.9745C133.242 20.8705 134.629 20.1186 136.139 19.814C137.649 19.5094 139.215 19.6658 140.637 20.2633C142.059 20.8608 143.275 21.8726 144.131 23.1708C144.986 24.4691 145.443 25.9953 145.443 27.5567C145.444 28.5939 145.244 29.6212 144.854 30.5798C144.463 31.5384 143.89 32.4093 143.166 33.1427C142.443 33.8761 141.584 34.4576 140.639 34.8537C139.694 35.2498 138.681 35.4528 137.658 35.4511V35.4511Z" fill="white"/>
<path d="M18.3385 40.4812C25.3763 40.4812 31.0814 34.6957 31.0814 27.5589C31.0814 20.422 25.3763 14.6365 18.3385 14.6365C11.3008 14.6365 5.59568 20.422 5.59568 27.5589C5.59568 34.6957 11.3008 40.4812 18.3385 40.4812ZM18.3385 45.1802C8.74201 45.1802 0.961914 37.2905 0.961914 27.5589C0.961914 17.8272 8.74201 9.9375 18.3385 9.9375C27.9351 9.9375 35.7152 17.8272 35.7152 27.5589C35.7152 37.2905 27.9351 45.1802 18.3385 45.1802Z" fill="#FBCC5C"/>
<path d="M27.6061 31.0808C34.6439 31.0808 40.349 25.2953 40.349 18.1585C40.349 11.0216 34.6439 5.23614 27.6061 5.23614C20.5684 5.23614 14.8633 11.0216 14.8633 18.1585C14.8633 25.2953 20.5684 31.0808 27.6061 31.0808ZM27.6061 35.7798C18.0096 35.7798 10.2295 27.8901 10.2295 18.1585C10.2295 8.42677 18.0096 0.537109 27.6061 0.537109C37.2027 0.537109 44.9827 8.42677 44.9827 18.1585C44.9827 27.8901 37.2027 35.7798 27.6061 35.7798Z" fill="#35D07F"/>
<path d="M28.1758 35.7712C29.3801 34.2914 30.2432 32.5575 30.7021 30.6962C32.5376 30.2309 34.2473 29.3558 35.7066 28.1348C35.6401 30.2899 35.1823 32.4141 34.3563 34.4009C32.3969 35.239 30.3018 35.7035 28.1763 35.7712H28.1758ZM15.2425 15.0193C13.4071 15.4846 11.6973 16.3597 10.238 17.5808C10.3046 15.4256 10.7623 13.3014 11.5883 11.3146C13.5478 10.4769 15.6429 10.0127 17.7684 9.94531C16.5644 11.4249 15.7015 13.1584 15.2425 15.0193V15.0193Z" fill="#5EA33B"/>
</svg>
