<svg width="40" height="39" viewBox="0 0 40 39" fill="none" xmlns="http://www.w3.org/2000/svg">
<path d="M7.27208 32.2279C5.67908 30.6349 6.73565 27.2905 5.92483 25.3308C5.08429 23.2993 2 21.6643 2 19.4999C2 17.3356 5.08431 15.7006 5.92484 13.6692C6.73566 11.7095 5.67908 8.36508 7.27208 6.77208C8.86508 5.17908 12.2095 6.23565 14.1692 5.42483C16.2007 4.58429 17.8357 1.5 20.0001 1.5C22.1644 1.5 23.7994 4.58431 25.8308 5.42484C27.7905 6.23566 31.1349 5.17908 32.7279 6.77208C34.3209 8.36508 33.2643 11.7095 34.0752 13.6692C34.9157 15.7007 38 17.3357 38 19.5001C38 21.6644 34.9157 23.2994 34.0752 25.3308C33.2643 27.2905 34.3209 30.6349 32.7279 32.2279C31.1349 33.8209 27.7905 32.7643 25.8308 33.5752C23.7993 34.4157 22.1643 37.5 19.9999 37.5C17.8356 37.5 16.2006 34.4157 14.1692 33.5752C12.2095 32.7643 8.86508 33.8209 7.27208 32.2279Z" stroke="white" stroke-width="2.5" stroke-linecap="round" stroke-linejoin="round"/>
<path d="M27.6155 15.3461L17.4616 25.0384L12.3848 20.1923" stroke="white" stroke-width="2.4" stroke-linecap="round" stroke-linejoin="round"/>
</svg>
