<svg width="244" height="57" viewBox="0 0 244 57" fill="none" xmlns="http://www.w3.org/2000/svg">
<path d="M217.448 29.0042C216.275 28.2235 214.965 27.6573 213.726 26.9728C212.902 26.5709 212.116 26.0967 211.376 25.5556C210.196 24.5825 210.432 22.6658 211.679 21.8296C213.448 20.6418 216.39 21.3153 216.693 23.7315C216.695 23.7567 216.706 23.7802 216.725 23.7974C216.743 23.8145 216.768 23.824 216.793 23.824H219.464C219.48 23.824 219.494 23.8209 219.508 23.8149C219.522 23.8088 219.534 23.7999 219.545 23.7887C219.555 23.7776 219.562 23.7644 219.567 23.75C219.572 23.7357 219.573 23.7206 219.572 23.7056C219.427 22.0368 218.795 20.6492 217.618 19.7612C216.53 18.9227 215.196 18.4651 213.822 18.4587C206.743 18.4587 206.1 25.9516 209.907 28.316C210.351 28.5898 214.084 30.4657 215.405 31.2761C216.726 32.0864 217.141 33.5887 216.567 34.7764C216.046 35.8643 214.691 36.5932 213.337 36.5229C211.857 36.4452 210.71 35.6386 210.307 34.3842C210.241 34.1064 210.207 33.8222 210.203 33.5369C210.201 33.5097 210.189 33.4843 210.169 33.4657C210.149 33.4472 210.123 33.4369 210.096 33.437H207.187C207.159 33.4379 207.131 33.45 207.111 33.4708C207.091 33.4915 207.08 33.5192 207.08 33.548C207.08 35.6497 207.605 36.8115 209.019 37.8735C210.258 38.8134 211.775 39.3134 213.33 39.2943C217.285 39.2943 219.35 37.052 219.757 34.7283C220.164 32.4046 219.494 30.3584 217.448 29.0042Z" fill="white"/>
<path d="M91.4645 18.8174H88.7819C88.7593 18.8167 88.7372 18.8236 88.719 18.837C88.7009 18.8504 88.6878 18.8696 88.682 18.8914L86.2917 26.7395C86.2857 26.7614 86.2726 26.7807 86.2546 26.7944C86.2365 26.8082 86.2145 26.8156 86.1918 26.8156C86.1691 26.8156 86.147 26.8082 86.129 26.7944C86.1109 26.7807 86.0979 26.7614 86.0919 26.7395L83.7053 18.8914C83.6982 18.8697 83.6843 18.8507 83.6656 18.8374C83.647 18.8241 83.6246 18.8171 83.6017 18.8174H79.1874C79.1596 18.8174 79.1328 18.8282 79.1128 18.8475C79.0928 18.8669 79.081 18.8932 79.0801 18.921V38.9722C79.0801 39.0006 79.0914 39.0279 79.1115 39.0481C79.1316 39.0682 79.1589 39.0795 79.1874 39.0795H82.0957C82.1096 39.0795 82.1234 39.0767 82.1362 39.0713C82.149 39.0658 82.1606 39.0579 82.1703 39.0479C82.18 39.0378 82.1875 39.026 82.1925 39.013C82.1975 39 82.1998 38.9861 82.1993 38.9722V23.7386C82.2013 23.7144 82.2114 23.6915 82.2281 23.6738C82.2448 23.6561 82.267 23.6445 82.2911 23.6411C82.3152 23.6376 82.3397 23.6425 82.3607 23.6548C82.3817 23.6672 82.3978 23.6863 82.4065 23.709L84.8116 31.6089L84.9781 32.1602C84.9852 32.182 84.9991 32.2009 85.0178 32.2142C85.0364 32.2275 85.0588 32.2345 85.0817 32.2342H87.3018C87.3247 32.2345 87.3471 32.2275 87.3658 32.2142C87.3844 32.2009 87.3983 32.182 87.4054 32.1602L87.5719 31.6089L89.977 23.709C89.9857 23.6863 90.0019 23.6672 90.0228 23.6548C90.0438 23.6425 90.0684 23.6376 90.0925 23.6411C90.1166 23.6445 90.1388 23.6561 90.1555 23.6738C90.1721 23.6915 90.1823 23.7144 90.1842 23.7386V38.9722C90.1838 38.9861 90.1861 39 90.191 39.013C90.196 39.026 90.2036 39.0378 90.2133 39.0479C90.2229 39.0579 90.2345 39.0658 90.2473 39.0713C90.2601 39.0767 90.2739 39.0795 90.2879 39.0795H93.1962C93.2246 39.0795 93.2519 39.0682 93.2721 39.0481C93.2922 39.0279 93.3035 39.0006 93.3035 38.9722V18.921C93.3025 18.8932 93.2908 18.8669 93.2708 18.8475C93.2507 18.8282 93.224 18.8174 93.1962 18.8174H91.4645Z" fill="white"/>
<path d="M173.013 18.8174C172.99 18.8178 172.969 18.8252 172.951 18.8384C172.933 18.8517 172.92 18.8702 172.913 18.8914L170.526 26.7394C170.519 26.7608 170.505 26.7793 170.487 26.7924C170.469 26.8056 170.447 26.8127 170.424 26.8127C170.402 26.8127 170.38 26.8056 170.362 26.7924C170.343 26.7793 170.33 26.7608 170.323 26.7394L167.936 18.8914C167.93 18.8699 167.916 18.8511 167.898 18.8377C167.88 18.8244 167.858 18.8173 167.836 18.8174H163.422C163.394 18.8174 163.367 18.8282 163.347 18.8475C163.327 18.8668 163.315 18.8932 163.314 18.921V38.9721C163.314 39.0006 163.326 39.0279 163.346 39.048C163.366 39.0681 163.393 39.0794 163.422 39.0794H166.33C166.358 39.0785 166.384 39.0667 166.404 39.0467C166.423 39.0267 166.434 39 166.434 38.9721V23.7386C166.436 23.7143 166.446 23.6915 166.462 23.6737C166.479 23.656 166.501 23.6445 166.525 23.641C166.55 23.6376 166.574 23.6424 166.595 23.6548C166.616 23.6671 166.632 23.6862 166.641 23.709L169.046 31.6088L169.213 32.1601C169.219 32.1813 169.233 32.1998 169.251 32.2131C169.269 32.2264 169.29 32.2337 169.312 32.2342H171.532C171.555 32.2349 171.577 32.228 171.595 32.2146C171.614 32.2011 171.627 32.182 171.632 32.1601L171.803 31.6088L174.204 23.709C174.213 23.6862 174.229 23.6671 174.25 23.6548C174.271 23.6424 174.295 23.6376 174.319 23.641C174.344 23.6445 174.366 23.656 174.382 23.6737C174.399 23.6915 174.409 23.7143 174.411 23.7386V38.9721C174.411 39.0006 174.423 39.0279 174.443 39.048C174.463 39.0681 174.49 39.0794 174.519 39.0794H177.427C177.455 39.0785 177.481 39.0667 177.5 39.0467C177.52 39.0267 177.53 39 177.53 38.9721V18.921C177.53 18.8938 177.518 18.868 177.499 18.8488C177.48 18.8295 177.454 18.8183 177.427 18.8174H173.013Z" fill="white"/>
<path d="M135.585 18.8174H121.894C121.867 18.8174 121.84 18.8282 121.82 18.8475C121.8 18.8668 121.788 18.8932 121.787 18.921V21.4297C121.788 21.4575 121.8 21.4839 121.82 21.5032C121.84 21.5225 121.867 21.5333 121.894 21.5333H127.197V38.9721C127.197 38.9862 127.2 39.0002 127.205 39.0132C127.21 39.0262 127.218 39.038 127.228 39.048C127.238 39.058 127.25 39.0659 127.263 39.0713C127.276 39.0767 127.29 39.0794 127.304 39.0794H130.212C130.24 39.0785 130.267 39.0667 130.286 39.0467C130.305 39.0267 130.316 39 130.316 38.9721V21.5333H135.585C135.613 21.5333 135.64 21.5225 135.66 21.5032C135.68 21.4839 135.691 21.4575 135.692 21.4297V18.921C135.691 18.8932 135.68 18.8668 135.66 18.8475C135.64 18.8282 135.613 18.8174 135.585 18.8174Z" fill="white"/>
<path d="M152.714 39.0816H155.356C155.372 39.0817 155.388 39.078 155.402 39.0708C155.417 39.0636 155.429 39.0531 155.439 39.0401C155.449 39.0272 155.455 39.0121 155.458 38.9962C155.461 38.9803 155.46 38.9639 155.455 38.9484L150.016 18.8306C150.01 18.8082 149.996 18.7884 149.977 18.7744C149.959 18.7604 149.936 18.7528 149.913 18.7529H146.116C146.093 18.7528 146.07 18.7604 146.051 18.7744C146.033 18.7884 146.019 18.8082 146.013 18.8306L140.555 38.9484C140.551 38.9641 140.551 38.9806 140.554 38.9965C140.557 39.0124 140.564 39.0273 140.574 39.0402C140.584 39.053 140.597 39.0634 140.612 39.0706C140.626 39.0777 140.642 39.0815 140.659 39.0816H143.3C143.324 39.0807 143.346 39.0722 143.364 39.0575C143.382 39.0429 143.395 39.0227 143.4 39.0002L144.988 33.1539C144.993 33.1318 145.006 33.1121 145.024 33.0981C145.043 33.084 145.065 33.0763 145.088 33.0762H150.926C150.949 33.0769 150.971 33.0848 150.989 33.0988C151.007 33.1127 151.02 33.1321 151.026 33.1539L152.606 38.9965C152.611 39.0213 152.624 39.0436 152.644 39.0593C152.664 39.0749 152.688 39.0829 152.714 39.0816V39.0816ZM145.78 30.2271L147.903 22.3939C147.911 22.3725 147.924 22.354 147.943 22.3409C147.961 22.3277 147.983 22.3206 148.005 22.3206C148.028 22.3206 148.05 22.3277 148.068 22.3409C148.086 22.354 148.1 22.3725 148.107 22.3939L150.231 30.2271C150.235 30.2426 150.236 30.259 150.234 30.2749C150.231 30.2909 150.224 30.3059 150.214 30.3189C150.205 30.3318 150.192 30.3423 150.178 30.3495C150.163 30.3567 150.147 30.3604 150.131 30.3603H145.883C145.867 30.3602 145.851 30.3565 145.836 30.3493C145.822 30.3421 145.809 30.3317 145.799 30.3189C145.789 30.3061 145.782 30.2911 145.779 30.2752C145.775 30.2593 145.776 30.2429 145.78 30.2271Z" fill="white"/>
<path d="M197.748 39.0816H200.386C200.402 39.0816 200.418 39.0778 200.433 39.0706C200.447 39.0634 200.46 39.053 200.47 39.0402C200.48 39.0274 200.487 39.0125 200.491 38.9966C200.494 38.9807 200.494 38.9642 200.49 38.9484L195.032 18.8307C195.026 18.8079 195.013 18.7878 194.994 18.7736C194.975 18.7595 194.952 18.7522 194.928 18.753H191.147C191.123 18.7529 191.101 18.7604 191.082 18.7744C191.063 18.7885 191.05 18.8082 191.043 18.8307L185.589 38.9484C185.585 38.9639 185.585 38.98 185.588 38.9957C185.591 39.0113 185.598 39.026 185.607 39.0388C185.617 39.0516 185.629 39.062 185.643 39.0694C185.658 39.0768 185.673 39.081 185.689 39.0816H188.331C188.354 39.0813 188.377 39.0731 188.395 39.0584C188.413 39.0436 188.426 39.0231 188.431 39.0002L190.018 33.154C190.025 33.1315 190.038 33.1118 190.057 33.0977C190.076 33.0837 190.098 33.0762 190.122 33.0763H195.957C195.98 33.0764 196.002 33.0841 196.02 33.0981C196.038 33.1122 196.051 33.1318 196.057 33.154L197.644 39.0002C197.65 39.0234 197.663 39.044 197.682 39.0587C197.701 39.0734 197.724 39.0815 197.748 39.0816ZM190.814 30.2272L192.938 22.3939C192.945 22.3726 192.958 22.354 192.977 22.3409C192.995 22.3278 193.017 22.3207 193.039 22.3207C193.062 22.3207 193.084 22.3278 193.102 22.3409C193.12 22.354 193.134 22.3726 193.141 22.3939L195.265 30.2272C195.269 30.2429 195.269 30.2594 195.266 30.2753C195.263 30.2912 195.256 30.3061 195.246 30.3189C195.236 30.3318 195.223 30.3422 195.208 30.3493C195.194 30.3565 195.178 30.3603 195.161 30.3604H190.914C190.897 30.3605 190.881 30.3568 190.867 30.3496C190.852 30.3424 190.84 30.3319 190.83 30.3189C190.82 30.306 190.814 30.2909 190.811 30.275C190.808 30.2591 190.809 30.2427 190.814 30.2272Z" fill="white"/>
<path d="M105.045 36.1156V29.8919C105.045 29.8782 105.047 29.8645 105.052 29.8517C105.057 29.8389 105.065 29.8273 105.074 29.8175C105.084 29.8078 105.096 29.8002 105.108 29.7952C105.121 29.7901 105.135 29.7878 105.149 29.7883H112.875C112.902 29.7874 112.929 29.7757 112.948 29.7556C112.967 29.7356 112.978 29.7089 112.978 29.681V27.176C112.978 27.1482 112.967 27.1215 112.948 27.1014C112.929 27.0814 112.902 27.0697 112.875 27.0687H105.149C105.121 27.0687 105.095 27.0578 105.075 27.0384C105.056 27.019 105.045 26.9926 105.045 26.9651V21.6406C105.045 21.6267 105.047 21.6128 105.052 21.5998C105.057 21.5868 105.064 21.575 105.074 21.5649C105.084 21.5549 105.095 21.547 105.108 21.5415C105.121 21.5361 105.135 21.5333 105.149 21.5333H113.94C113.968 21.5333 113.995 21.5225 114.015 21.5032C114.035 21.4839 114.047 21.4575 114.048 21.4297V18.921C114.047 18.8932 114.035 18.8668 114.015 18.8475C113.995 18.8282 113.968 18.8174 113.94 18.8174H102.029C102.002 18.8174 101.976 18.8283 101.956 18.8477C101.937 18.8672 101.926 18.8935 101.926 18.921V38.9721C101.925 38.986 101.928 38.9999 101.933 39.0129C101.938 39.0259 101.945 39.0378 101.955 39.0478C101.965 39.0578 101.976 39.0658 101.989 39.0712C102.002 39.0766 102.016 39.0794 102.029 39.0794H114.318C114.346 39.0794 114.373 39.0681 114.394 39.048C114.414 39.0279 114.425 39.0006 114.425 38.9721V36.3265C114.425 36.2981 114.414 36.2708 114.394 36.2506C114.373 36.2305 114.346 36.2192 114.318 36.2192H105.149C105.135 36.2197 105.121 36.2174 105.108 36.2124C105.096 36.2074 105.084 36.1997 105.074 36.19C105.065 36.1803 105.057 36.1687 105.052 36.1559C105.047 36.1431 105.045 36.1294 105.045 36.1156V36.1156Z" fill="white"/>
<path d="M243.97 38.8981L233.928 28.5192C233.918 28.5095 233.91 28.498 233.905 28.4853C233.899 28.4726 233.897 28.459 233.897 28.4452C233.897 28.4314 233.899 28.4178 233.905 28.4051C233.91 28.3923 233.918 28.3808 233.928 28.3712L242.96 19.0135C242.975 18.999 242.985 18.9804 242.989 18.9601C242.993 18.9398 242.991 18.9188 242.983 18.8996C242.975 18.8805 242.961 18.8642 242.944 18.8529C242.927 18.8415 242.906 18.8356 242.886 18.8359H239.189C239.175 18.8359 239.16 18.8388 239.147 18.8446C239.134 18.8503 239.122 18.8587 239.112 18.8692L231.445 26.8282C231.43 26.8437 231.411 26.8545 231.39 26.8591C231.369 26.8636 231.347 26.8618 231.327 26.8538C231.307 26.8459 231.29 26.8321 231.278 26.8144C231.266 26.7966 231.26 26.7757 231.26 26.7542V18.921C231.26 18.8935 231.249 18.8672 231.23 18.8477C231.21 18.8283 231.184 18.8174 231.156 18.8174H228.248C228.22 18.8174 228.193 18.8282 228.173 18.8475C228.153 18.8668 228.142 18.8932 228.141 18.921V38.9721C228.141 39.0006 228.152 39.0279 228.172 39.048C228.192 39.0681 228.219 39.0794 228.248 39.0794H231.156C231.17 39.0794 231.184 39.0766 231.197 39.0712C231.21 39.0658 231.221 39.0578 231.231 39.0478C231.241 39.0378 231.248 39.0259 231.253 39.0129C231.258 38.9999 231.26 38.986 231.26 38.9721V30.1473C231.261 30.1266 231.267 30.1065 231.279 30.0896C231.291 30.0726 231.307 30.0594 231.327 30.0516C231.346 30.0437 231.367 30.0416 231.387 30.0455C231.407 30.0493 231.426 30.059 231.441 30.0733L240.125 39.0461C240.145 39.0665 240.171 39.0785 240.199 39.0794H243.9C243.92 39.0781 243.94 39.0709 243.956 39.0588C243.972 39.0467 243.985 39.0302 243.992 39.0112C244 38.9921 244.002 38.9714 243.998 38.9514C243.994 38.9313 243.984 38.9129 243.97 38.8981V38.8981Z" fill="white"/>
<path d="M57.5185 1.18433L34.4512 18.2978L38.7352 8.20125L57.5185 1.18433Z" fill="#E17726" stroke="#E17726" stroke-width="0.822657" stroke-linecap="round" stroke-linejoin="round"/>
<path d="M4.32129 1.18433L27.1788 18.4597L23.1046 8.20125L4.32129 1.18433Z" fill="#E27625" stroke="#E27625" stroke-width="0.822657" stroke-linecap="round" stroke-linejoin="round"/>
<path d="M49.2253 40.8564L43.0889 50.2595L56.2194 53.8706L59.9719 41.064L49.2253 40.8564Z" fill="#E27625" stroke="#E27625" stroke-width="0.822657" stroke-linecap="round" stroke-linejoin="round"/>
<path d="M1.88965 41.064L5.61938 53.8706L18.7499 50.2595L12.6363 40.8564L1.88965 41.064Z" fill="#E27625" stroke="#E27625" stroke-width="0.822657" stroke-linecap="round" stroke-linejoin="round"/>
<path d="M18.0311 24.967L14.3721 30.5035L27.3885 31.0829L26.9482 17.0696L18.0311 24.967Z" fill="#E27625" stroke="#E27625" stroke-width="0.822657" stroke-linecap="round" stroke-linejoin="round"/>
<path d="M43.8086 24.9691L34.7523 16.9097L34.4512 31.0849L47.4676 30.5055L43.8086 24.9691Z" fill="#E27625" stroke="#E27625" stroke-width="0.822657" stroke-linecap="round" stroke-linejoin="round"/>
<path d="M18.75 50.2604L26.6018 46.4371L19.8381 41.1584L18.75 50.2604Z" fill="#E27625" stroke="#E27625" stroke-width="0.822657" stroke-linecap="round" stroke-linejoin="round"/>
<path d="M35.2373 46.4371L43.0891 50.2604L42.001 41.1584L35.2373 46.4371Z" fill="#E27625" stroke="#E27625" stroke-width="0.822657" stroke-linecap="round" stroke-linejoin="round"/>
<path d="M43.0891 50.2578L35.2373 46.4346L35.8624 51.5535L35.7939 53.707L43.0891 50.2578Z" fill="#D5BFB2" stroke="#D5BFB2" stroke-width="0.822657" stroke-linecap="round" stroke-linejoin="round"/>
<path d="M18.75 50.2578L26.0452 53.707L25.9996 51.5535L26.6018 46.4346L18.75 50.2578Z" fill="#D5BFB2" stroke="#D5BFB2" stroke-width="0.822657" stroke-linecap="round" stroke-linejoin="round"/>
<path d="M26.1844 37.7761L19.6533 35.8554L24.2613 33.7476L26.1844 37.7761Z" fill="#233447" stroke="#233447" stroke-width="0.822657" stroke-linecap="round" stroke-linejoin="round"/>
<path d="M35.6553 37.7761L37.5783 33.7476L42.2091 35.8554L35.6553 37.7761Z" fill="#233447" stroke="#233447" stroke-width="0.822657" stroke-linecap="round" stroke-linejoin="round"/>
<path d="M18.7503 50.2595L19.884 40.8564L12.6367 41.064L18.7503 50.2595Z" fill="#CC6228" stroke="#CC6228" stroke-width="0.822657" stroke-linecap="round" stroke-linejoin="round"/>
<path d="M41.9561 40.8564L43.0898 50.2595L49.2262 41.064L41.9561 40.8564Z" fill="#CC6228" stroke="#CC6228" stroke-width="0.822657" stroke-linecap="round" stroke-linejoin="round"/>
<path d="M47.4676 30.5029L34.4512 31.0823L35.6556 37.7731L37.5787 33.7445L42.2095 35.8523L47.4676 30.5029Z" fill="#CC6228" stroke="#CC6228" stroke-width="0.822657" stroke-linecap="round" stroke-linejoin="round"/>
<path d="M19.653 35.8523L24.261 33.7445L26.184 37.7731L27.3885 31.0823L14.3721 30.5029L19.653 35.8523Z" fill="#CC6228" stroke="#CC6228" stroke-width="0.822657" stroke-linecap="round" stroke-linejoin="round"/>
<path d="M14.3721 30.5029L19.8378 41.1561L19.653 35.8523L14.3721 30.5029Z" fill="#E27525" stroke="#E27525" stroke-width="0.822657" stroke-linecap="round" stroke-linejoin="round"/>
<path d="M42.2095 35.8523L42.002 41.1561L47.4677 30.5029L42.2095 35.8523Z" fill="#E27525" stroke="#E27525" stroke-width="0.822657" stroke-linecap="round" stroke-linejoin="round"/>
<path d="M27.389 31.0835L26.1846 37.7742L27.713 45.6717L28.0369 35.274L27.389 31.0835Z" fill="#E27525" stroke="#E27525" stroke-width="0.822657" stroke-linecap="round" stroke-linejoin="round"/>
<path d="M34.4522 31.0835L33.8271 35.2512L34.1283 45.6717L35.6567 37.7742L34.4522 31.0835Z" fill="#E27525" stroke="#E27525" stroke-width="0.822657" stroke-linecap="round" stroke-linejoin="round"/>
<path d="M35.6544 37.7745L34.126 45.672L35.2369 46.4362L42.0006 41.1575L42.2082 35.8538L35.6544 37.7745Z" fill="#F5841F" stroke="#F5841F" stroke-width="0.822657" stroke-linecap="round" stroke-linejoin="round"/>
<path d="M19.6533 35.8538L19.8381 41.1575L26.6018 46.4362L27.7127 45.672L26.1844 37.7745L19.6533 35.8538Z" fill="#F5841F" stroke="#F5841F" stroke-width="0.822657" stroke-linecap="round" stroke-linejoin="round"/>
<path d="M35.795 53.7092L35.8634 51.5557L35.2863 51.047H26.5539L25.9996 51.5557L26.0452 53.7092L18.75 50.26L21.2981 52.3427L26.4855 55.9333H35.3547L40.5421 52.3427L43.0902 50.26L35.795 53.7092Z" fill="#C0AC9D" stroke="#C0AC9D" stroke-width="0.822657" stroke-linecap="round" stroke-linejoin="round"/>
<path d="M35.2368 46.4349L34.1259 45.6707H27.7112L26.6003 46.4349L25.998 51.5538L26.5524 51.0451H35.2848L35.8619 51.5538L35.2368 46.4349Z" fill="#161616" stroke="#161616" stroke-width="0.822657" stroke-linecap="round" stroke-linejoin="round"/>
<path d="M58.4894 19.411L60.4353 9.96232L57.5176 1.18433L35.2373 17.7206L43.8077 24.968L55.9185 28.5129L58.5829 25.3854L57.4241 24.5528L59.2764 22.8601L57.8644 21.7492L59.7167 20.3371L58.4894 19.411Z" fill="#763E1A" stroke="#763E1A" stroke-width="0.822657" stroke-linecap="round" stroke-linejoin="round"/>
<path d="M1.40332 9.96232L3.37198 19.411L2.1219 20.3371L3.97422 21.7492L2.56216 22.8601L4.41449 24.5528L3.25564 25.3854L5.92007 28.5129L18.0309 24.968L26.6013 17.7206L4.32096 1.18433L1.40332 9.96232Z" fill="#763E1A" stroke="#763E1A" stroke-width="0.822657" stroke-linecap="round" stroke-linejoin="round"/>
<path d="M55.9195 28.5135L43.8086 24.9685L47.4677 30.5049L42.002 41.1581L49.2265 41.0645H59.9731L55.9195 28.5135Z" fill="#F5841F" stroke="#F5841F" stroke-width="0.822657" stroke-linecap="round" stroke-linejoin="round"/>
<path d="M18.0313 24.9685L5.9205 28.5135L1.88965 41.0645H12.6363L19.838 41.1581L14.3723 30.5049L18.0313 24.9685Z" fill="#F5841F" stroke="#F5841F" stroke-width="0.822657" stroke-linecap="round" stroke-linejoin="round"/>
<path d="M34.4501 31.083L35.2371 17.7198L38.7342 8.20044H23.1035L26.6006 17.7198L27.3876 31.083L27.6887 35.2963L27.7115 45.6712H34.1262L34.149 35.2963L34.4501 31.083Z" fill="#F5841F" stroke="#F5841F" stroke-width="0.822657" stroke-linecap="round" stroke-linejoin="round"/>
</svg>
