<svg width="80" height="72" viewBox="0 0 80 72" fill="none" xmlns="http://www.w3.org/2000/svg">
<rect x="0.926562" y="1.61772" width="78.1" height="69.1" rx="7.3" fill="white" stroke="#F99E48" stroke-width="1.4" stroke-dasharray="4 4"/>
<path d="M58.4629 53.5895C58.4629 56.1096 56.4197 58.1528 53.8996 58.1528H26.0516C23.5315 58.1528 21.4883 56.1096 21.4883 53.5895V18.1465C21.4883 15.6265 23.5315 13.5833 26.0516 13.5833H53.8996C56.4197 13.5833 58.4629 15.6265 58.4629 18.1465V53.5895Z" fill="#F99E48" stroke="#0E161B"/>
<path d="M41.2406 52.3239C41.2406 53.0239 40.6735 53.5897 39.9748 53.5897C39.2761 53.5897 38.709 53.0239 38.709 52.3239V19.4125C38.709 18.7138 39.2761 18.1467 39.9748 18.1467C40.6735 18.1467 41.2406 18.7138 41.2406 19.4125V52.3239Z" fill="#0E161B"/>
<path d="M36.177 20.6782C36.177 21.3769 35.6099 21.944 34.9111 21.944H29.8479C29.1491 21.944 28.582 21.3769 28.582 20.6782C28.582 19.9794 29.1491 19.4124 29.8479 19.4124H34.9111C35.6099 19.4124 36.177 19.9794 36.177 20.6782ZM36.177 35.868C36.177 36.568 35.6099 37.1338 34.9111 37.1338H29.8479C29.1491 37.1338 28.582 36.568 28.582 35.868C28.582 35.1693 29.1491 34.6022 29.8479 34.6022H34.9111C35.6099 34.6022 36.177 35.1693 36.177 35.868ZM36.177 51.0579C36.177 51.7579 35.6099 52.3237 34.9111 52.3237H29.8479C29.1491 52.3237 28.582 51.7579 28.582 51.0579C28.582 50.3579 29.1491 49.792 29.8479 49.792H34.9111C35.6099 49.792 36.177 50.3579 36.177 51.0579ZM51.3668 20.6782C51.3668 21.3769 50.801 21.944 50.101 21.944H45.0377C44.3377 21.944 43.7719 21.3769 43.7719 20.6782C43.7719 19.9794 44.3377 19.4124 45.0377 19.4124H50.101C50.801 19.4124 51.3668 19.9794 51.3668 20.6782ZM51.3668 35.868C51.3668 36.568 50.801 37.1338 50.101 37.1338H45.0377C44.3377 37.1338 43.7719 36.568 43.7719 35.868C43.7719 35.1693 44.3377 34.6022 45.0377 34.6022H50.101C50.801 34.6022 51.3668 35.1693 51.3668 35.868ZM51.3668 51.0579C51.3668 51.7579 50.801 52.3237 50.101 52.3237H45.0377C44.3377 52.3237 43.7719 51.7579 43.7719 51.0579C43.7719 50.3579 44.3377 49.792 45.0377 49.792H50.101C50.801 49.792 51.3668 50.3579 51.3668 51.0579ZM36.177 43.5971C36.177 44.2224 35.6706 44.7288 35.0466 44.7288H32.244C31.62 44.7288 31.1137 44.2224 31.1137 43.5971V43.3275C31.1137 42.7034 31.62 42.1971 32.244 42.1971H35.0466C35.6706 42.1971 36.177 42.7034 36.177 43.3288V43.5971V43.5971ZM48.8352 43.5971C48.8352 44.2224 48.3288 44.7288 47.7048 44.7288H44.901C44.2782 44.7288 43.7719 44.2224 43.7719 43.5971V43.3275C43.7719 42.7034 44.2782 42.1971 44.9023 42.1971H47.706C48.3288 42.1971 48.8352 42.7034 48.8352 43.3288V43.5971V43.5971Z" fill="white"/>
<path d="M48.4392 29.5391C48.4392 30.7171 47.483 31.6733 46.3051 31.6733H33.6469C32.4689 31.6733 31.5127 30.7171 31.5127 29.5391V27.0075C31.5127 25.8295 32.4689 24.8733 33.6469 24.8733H46.3051C47.483 24.8733 48.4392 25.8295 48.4392 27.0075V29.5391Z" fill="white" stroke="#0E161B" stroke-width="0.794948"/>
</svg>
